<mxfile host="app.diagrams.net" modified="2023-11-15T08:56:13.067Z" agent="Mozilla/5.0 (Windows NT 10.0; Win64; x64) AppleWebKit/537.36 (KHTML, like Gecko) Chrome/119.0.0.0 Safari/537.36" etag="bl7AiyTuQN6Ho0cha9k9" version="22.1.1" type="device">
  <diagram name="페이지-1" id="6xDAHY-PFdrt-k60f_tK">
    <mxGraphModel dx="1835" dy="1268" grid="1" gridSize="10" guides="1" tooltips="1" connect="1" arrows="1" fold="1" page="1" pageScale="1" pageWidth="827" pageHeight="1169" math="0" shadow="0">
      <root>
        <mxCell id="0" />
        <mxCell id="1" parent="0" />
        <mxCell id="deJrleRd14R21oLjXJeP-4" value="" style="edgeStyle=orthogonalEdgeStyle;rounded=0;orthogonalLoop=1;jettySize=auto;html=1;" edge="1" parent="1" source="deJrleRd14R21oLjXJeP-2" target="deJrleRd14R21oLjXJeP-3">
          <mxGeometry relative="1" as="geometry" />
        </mxCell>
        <mxCell id="deJrleRd14R21oLjXJeP-13" value="" style="edgeStyle=orthogonalEdgeStyle;rounded=0;orthogonalLoop=1;jettySize=auto;html=1;" edge="1" parent="1" source="deJrleRd14R21oLjXJeP-2" target="deJrleRd14R21oLjXJeP-12">
          <mxGeometry relative="1" as="geometry" />
        </mxCell>
        <mxCell id="deJrleRd14R21oLjXJeP-2" value="&lt;h1&gt;기상기후 빅데이터와 머신러닝을 활용한&amp;nbsp;&lt;/h1&gt;&lt;h1&gt;태양광 발전량 예측&lt;/h1&gt;" style="text;html=1;strokeColor=none;fillColor=none;spacing=5;spacingTop=-20;whiteSpace=wrap;overflow=hidden;rounded=0;" vertex="1" parent="1">
          <mxGeometry x="-80" y="70" width="490" height="160" as="geometry" />
        </mxCell>
        <mxCell id="deJrleRd14R21oLjXJeP-15" value="" style="edgeStyle=orthogonalEdgeStyle;rounded=0;orthogonalLoop=1;jettySize=auto;html=1;" edge="1" parent="1" source="deJrleRd14R21oLjXJeP-3" target="deJrleRd14R21oLjXJeP-14">
          <mxGeometry relative="1" as="geometry" />
        </mxCell>
        <mxCell id="deJrleRd14R21oLjXJeP-3" value="대상지역&amp;nbsp;&lt;br&gt;&lt;br&gt;강원대학교 삼척캠퍼스 내 설치된 태양광 발전시설" style="whiteSpace=wrap;html=1;" vertex="1" parent="1">
          <mxGeometry x="-540" y="350" width="510" height="250" as="geometry" />
        </mxCell>
        <mxCell id="deJrleRd14R21oLjXJeP-12" value="문제&lt;br&gt;기상기후 데이터를 이용하여 과거 데이터 학습 후&amp;nbsp;&lt;br&gt;1시간 단위의 태양광 발전량 예측" style="whiteSpace=wrap;html=1;" vertex="1" parent="1">
          <mxGeometry x="110" y="350" width="445" height="250" as="geometry" />
        </mxCell>
        <mxCell id="deJrleRd14R21oLjXJeP-14" value="제공되는 기존데이터 사용" style="whiteSpace=wrap;html=1;" vertex="1" parent="1">
          <mxGeometry x="-800" y="670" width="510" height="250" as="geometry" />
        </mxCell>
      </root>
    </mxGraphModel>
  </diagram>
</mxfile>
